<svg width="19" height="43" viewBox="0 0 19 43" fill="none" xmlns="http://www.w3.org/2000/svg">
<path fill-rule="evenodd" clip-rule="evenodd" d="M3.26667 0V25.5696C4.97778 23.4196 7.15556 22.2679 9.8 22.2679C12.4444 22.2679 14.4667 23.1893 16.0222 25.0321C17.5778 26.875 18.3556 29.3321 18.3556 32.3268C18.3556 35.475 17.5 38.0089 15.8667 40.0054C14.3889 41.6946 12.4444 42.6161 9.95556 42.6161C7.31111 42.6161 5.05556 41.6179 3.34444 39.5446V42.2321H0V0H3.26667ZM9.25555 24.8786C7.46667 24.8786 5.98889 25.5696 4.82222 27.0286C3.73333 28.3339 3.26667 30.1768 3.26667 32.7107C3.26667 34.8607 3.73333 36.4732 4.58889 37.7018C5.75556 39.3143 7.38889 40.0821 9.48889 40.0821C11.4333 40.0821 12.9111 39.3911 13.7667 37.9321C14.7 36.55 15.0889 34.7071 15.0889 32.4804C15.0889 30.3304 14.6222 28.5643 13.7667 27.1821C12.7556 25.6464 11.2778 24.8786 9.25555 24.8786Z" fill="#7894FF"/>
</svg>
