<svg width="321" height="33" viewBox="0 0 321 33" fill="none" xmlns="http://www.w3.org/2000/svg">
<path d="M7.78125 16.3994H3.46777V19.9268H8.47852V21H2.15527V11.0469H8.41016V12.127H3.46777V15.3262H7.78125V16.3994Z" fill="#445EFF"/>
<path d="M20.6729 11.8125V13.6035H22.0537V14.5811H20.6729V19.168C20.6729 19.4642 20.7344 19.6875 20.8574 19.8379C20.9805 19.9837 21.1901 20.0566 21.4863 20.0566C21.6322 20.0566 21.8327 20.0293 22.0879 19.9746V21C21.7552 21.0911 21.4316 21.1367 21.1172 21.1367C20.5521 21.1367 20.126 20.9658 19.8389 20.624C19.5518 20.2822 19.4082 19.7969 19.4082 19.168V14.5811H18.0615V13.6035H19.4082V11.8125H20.6729Z" fill="#445EFF"/>
<path d="M35.5322 14.7383C35.3408 14.7064 35.1335 14.6904 34.9102 14.6904C34.0807 14.6904 33.5179 15.0436 33.2217 15.75V21H31.957V13.6035H33.1875L33.208 14.458C33.6227 13.7972 34.2106 13.4668 34.9717 13.4668C35.2178 13.4668 35.4046 13.4987 35.5322 13.5625V14.7383Z" fill="#445EFF"/>
<path d="M49.1465 13.6035L49.1807 14.4238C49.723 13.7858 50.4544 13.4668 51.375 13.4668C52.4095 13.4668 53.1136 13.8633 53.4873 14.6562C53.7334 14.3008 54.0524 14.0137 54.4443 13.7949C54.8408 13.5762 55.3079 13.4668 55.8457 13.4668C57.4681 13.4668 58.293 14.3258 58.3203 16.0439V21H57.0557V16.1191C57.0557 15.5905 56.9349 15.1963 56.6934 14.9365C56.4518 14.6722 56.0462 14.54 55.4766 14.54C55.0072 14.54 54.6175 14.6813 54.3076 14.9639C53.9977 15.2419 53.8177 15.6178 53.7676 16.0918V21H52.4961V16.1533C52.4961 15.0778 51.9697 14.54 50.917 14.54C50.0876 14.54 49.5202 14.8932 49.2148 15.5996V21H47.9502V13.6035H49.1465Z" fill="#DE1935"/>
<path d="M68.3311 21H67.0664V13.6035H68.3311V21ZM66.9639 11.6416C66.9639 11.4365 67.0254 11.2633 67.1484 11.1221C67.276 10.9808 67.4629 10.9102 67.709 10.9102C67.9551 10.9102 68.1419 10.9808 68.2695 11.1221C68.3971 11.2633 68.4609 11.4365 68.4609 11.6416C68.4609 11.8467 68.3971 12.0176 68.2695 12.1543C68.1419 12.291 67.9551 12.3594 67.709 12.3594C67.4629 12.3594 67.276 12.291 67.1484 12.1543C67.0254 12.0176 66.9639 11.8467 66.9639 11.6416Z" fill="#DE1935"/>
<path d="M28.0264 21.1367C27.0238 21.1367 26.208 20.8086 25.5791 20.1523C24.9502 19.4915 24.6357 18.6097 24.6357 17.5068V17.2744C24.6357 16.5407 24.7747 15.8867 25.0527 15.3125C25.3353 14.7337 25.7272 14.2826 26.2285 13.959C26.7344 13.6309 27.2812 13.4668 27.8691 13.4668C28.8307 13.4668 29.5781 13.7835 30.1113 14.417C30.6445 15.0505 30.9111 15.9574 30.9111 17.1377V17.6641H25.9004C25.9186 18.3932 26.1305 18.9834 26.5361 19.4346C26.9463 19.8812 27.4658 20.1045 28.0947 20.1045C28.5413 20.1045 28.9196 20.0133 29.2295 19.8311C29.5394 19.6488 29.8105 19.4072 30.043 19.1064L30.8154 19.708C30.1956 20.6605 29.266 21.1367 28.0264 21.1367ZM27.8691 14.5059C27.3587 14.5059 26.9303 14.6927 26.584 15.0664C26.2376 15.4355 26.0234 15.9551 25.9414 16.625H29.6465V16.5293C29.61 15.8867 29.4368 15.39 29.127 15.0391C28.8171 14.6836 28.3978 14.5059 27.8691 14.5059Z" fill="#DE1935"/>
<path d="M64.5234 21C64.4505 20.8542 64.3913 20.5944 64.3457 20.2207C63.7578 20.8314 63.056 21.1367 62.2402 21.1367C61.5111 21.1367 60.9118 20.9316 60.4424 20.5215C59.9775 20.1068 59.7451 19.5827 59.7451 18.9492C59.7451 18.179 60.0368 17.582 60.6201 17.1582C61.208 16.7298 62.0329 16.5156 63.0947 16.5156H64.3252V15.9346C64.3252 15.4925 64.193 15.1416 63.9287 14.8818C63.6644 14.6175 63.2747 14.4854 62.7598 14.4854C62.3086 14.4854 61.9303 14.5993 61.625 14.8271C61.3197 15.055 61.167 15.3307 61.167 15.6543H59.8955C59.8955 15.2852 60.0254 14.9297 60.2852 14.5879C60.5495 14.2415 60.9049 13.9681 61.3516 13.7676C61.8027 13.5671 62.2972 13.4668 62.835 13.4668C63.6872 13.4668 64.3548 13.681 64.8379 14.1094C65.321 14.5332 65.5716 15.1188 65.5898 15.8662V19.2705C65.5898 19.9495 65.6764 20.4896 65.8496 20.8906V21H64.5234ZM62.4248 20.0361C62.8213 20.0361 63.1973 19.9336 63.5527 19.7285C63.9082 19.5234 64.1657 19.2568 64.3252 18.9287V17.4111H63.334C61.7845 17.4111 61.0098 17.8646 61.0098 18.7715C61.0098 19.168 61.1419 19.4779 61.4062 19.7012C61.6706 19.9245 62.0101 20.0361 62.4248 20.0361Z" fill="#445EFF"/>
<path d="M12.1533 13.6035L12.1943 14.5332C12.7594 13.8223 13.4977 13.4668 14.4092 13.4668C15.9723 13.4668 16.7607 14.3486 16.7744 16.1123V21H15.5098V16.1055C15.5052 15.5723 15.3822 15.1781 15.1406 14.9229C14.9036 14.6676 14.5322 14.54 14.0264 14.54C13.6162 14.54 13.2562 14.6494 12.9463 14.8682C12.6364 15.0869 12.3949 15.374 12.2217 15.7295V21H10.957V13.6035H12.1533Z" fill="#DE1935"/>
<path d="M71.3311 21H70.0664V10.5H71.3311V21Z" fill="#445EFF"/>
<path d="M44.0264 21.1367C43.0238 21.1367 42.208 20.8086 41.5791 20.1523C40.9502 19.4915 40.6357 18.6097 40.6357 17.5068V17.2744C40.6357 16.5407 40.7747 15.8867 41.0527 15.3125C41.3353 14.7337 41.7272 14.2826 42.2285 13.959C42.7344 13.6309 43.2812 13.4668 43.8691 13.4668C44.8307 13.4668 45.5781 13.7835 46.1113 14.417C46.6445 15.0505 46.9111 15.9574 46.9111 17.1377V17.6641H41.9004C41.9186 18.3932 42.1305 18.9834 42.5361 19.4346C42.9463 19.8812 43.4658 20.1045 44.0947 20.1045C44.5413 20.1045 44.9196 20.0133 45.2295 19.8311C45.5394 19.6488 45.8105 19.4072 46.043 19.1064L46.8154 19.708C46.1956 20.6605 45.266 21.1367 44.0264 21.1367ZM43.8691 14.5059C43.3587 14.5059 42.9303 14.6927 42.584 15.0664C42.2376 15.4355 42.0234 15.9551 41.9414 16.625H45.6465V16.5293C45.61 15.8867 45.4368 15.39 45.127 15.0391C44.8171 14.6836 44.3978 14.5059 43.8691 14.5059Z" fill="#445EFF"/>
</svg>
